<?xml version="1.0" encoding="UTF-8" standalone="no"?>
<!DOCTYPE svg PUBLIC "-//W3C//DTD SVG 1.1//EN" "http://www.w3.org/Graphics/SVG/1.1/DTD/svg11.dtd">
<svg width="100%" height="100%" viewBox="0 0 2000 2077" version="1.1" xmlns="http://www.w3.org/2000/svg" xmlns:xlink="http://www.w3.org/1999/xlink" xml:space="preserve" xmlns:serif="http://www.serif.com/" style="fill-rule:evenodd;clip-rule:evenodd;stroke-linecap:round;stroke-linejoin:round;stroke-miterlimit:10;">
    <g id="Layer_3">
        <g transform="matrix(1,0,0,1,2160,0)">
            <clipPath id="_clip1">
                <rect x="-2160" y="0" width="2000" height="2077"/>
            </clipPath>
            <g clip-path="url(#_clip1)">
                <path d="M-2163,695C-1931.33,463.33 -1699.67,231.67 -1468,0" style="fill:none;fill-rule:nonzero;stroke:#555;stroke-width:8px;"/>
            </g>
            <clipPath id="_clip2">
                <rect x="-2160" y="0" width="2000" height="2077"/>
            </clipPath>
            <g clip-path="url(#_clip2)">
                <path d="M-2163,712C-1925.67,474.67 -1688.33,237.33 -1451,0" style="fill:none;fill-rule:nonzero;stroke:#555;stroke-width:4px;"/>
            </g>
            <clipPath id="_clip3">
                <rect x="-2160" y="0" width="2000" height="2077"/>
            </clipPath>
            <g clip-path="url(#_clip3)">
                <path d="M-2163,729C-1920,486 -1677,243 -1434,0" style="fill:none;fill-rule:nonzero;stroke:#555;stroke-width:2px;"/>
            </g>
            <clipPath id="_clip4">
                <rect x="-2160" y="0" width="2000" height="2077"/>
            </clipPath>
            <g clip-path="url(#_clip4)">
                <path d="M-2163,868C-1873.67,578.67 -1584.33,289.33 -1295,0" style="fill:none;fill-rule:nonzero;stroke:#555;stroke-width:8px;"/>
            </g>
            <clipPath id="_clip5">
                <rect x="-2160" y="0" width="2000" height="2077"/>
            </clipPath>
            <g clip-path="url(#_clip5)">
                <circle cx="-2093.5" cy="69.5" r="337" style="fill:none;stroke:#555;stroke-width:8px;"/>
            </g>
            <clipPath id="_clip6">
                <rect x="-2160" y="0" width="2000" height="2077"/>
            </clipPath>
            <g clip-path="url(#_clip6)">
                <circle cx="-2090" cy="73" r="321" style="fill:none;stroke:#555;stroke-width:4px;"/>
            </g>
            <clipPath id="_clip7">
                <rect x="-2160" y="0" width="2000" height="2077"/>
            </clipPath>
            <g clip-path="url(#_clip7)">
                <path d="M-1940.5,1043L-1940.5,812C-1790.5,663.67 -1640.5,515.33 -1490.5,367C-1713.67,702 -1936.83,1037 -2160,1372" style="fill:none;fill-rule:nonzero;stroke:#555;stroke-width:8px;"/>
            </g>
            <clipPath id="_clip8">
                <rect x="-2160" y="0" width="2000" height="2077"/>
            </clipPath>
            <g clip-path="url(#_clip8)">
                <path d="M-1490.77,570C-1713.85,904.87 -1936.92,1239.74 -2160,1574.6" style="fill:none;fill-rule:nonzero;stroke:#555;stroke-width:8px;"/>
            </g>
            <clipPath id="_clip9">
                <rect x="-2160" y="0" width="2000" height="2077"/>
            </clipPath>
            <g clip-path="url(#_clip9)">
                <path d="M-1490.77,601C-1713.85,935.87 -1936.92,1270.74 -2160,1605.6" style="fill:none;fill-rule:nonzero;stroke:#555;stroke-width:4px;"/>
            </g>
            <clipPath id="_clip10">
                <rect x="-2160" y="0" width="2000" height="2077"/>
            </clipPath>
            <g clip-path="url(#_clip10)">
                <path d="M-1490.77,630C-1713.85,964.87 -1936.92,1299.74 -2160,1634.6" style="fill:none;fill-rule:nonzero;stroke:#555;stroke-width:2px;"/>
            </g>
            <clipPath id="_clip11">
                <rect x="-2160" y="0" width="2000" height="2077"/>
            </clipPath>
            <g clip-path="url(#_clip11)">
                <path d="M-1490.2,798C-1713.47,1133.15 -1936.73,1468.31 -2160,1803.46" style="fill:none;fill-rule:nonzero;stroke:#555;stroke-width:8px;"/>
            </g>
            <clipPath id="_clip12">
                <rect x="-2160" y="0" width="2000" height="2077"/>
            </clipPath>
            <g clip-path="url(#_clip12)">
                <path d="M-1499.65,1024C-1719.77,1354.43 -1939.88,1684.85 -2160,2015.28" style="fill:none;fill-rule:nonzero;stroke:#555;stroke-width:8px;"/>
            </g>
            <clipPath id="_clip13">
                <rect x="-2160" y="0" width="2000" height="2077"/>
            </clipPath>
            <g clip-path="url(#_clip13)">
                <path d="M-1657.96,1266C-1647.36,1266.1 -1589.99,1267.71 -1544.72,1314.53C-1501.85,1358.87 -1500.11,1412.47 -1500,1423.96L-1500,2076.74" style="fill:none;fill-rule:nonzero;stroke:#555;stroke-width:8px;"/>
            </g>
            <clipPath id="_clip14">
                <rect x="-2160" y="0" width="2000" height="2077"/>
            </clipPath>
            <g clip-path="url(#_clip14)">
                <path d="M-1670.46,1276.76C-1659.86,1276.86 -1602.49,1278.47 -1557.22,1325.29C-1514.35,1369.63 -1512.61,1423.22 -1512.5,1434.72L-1512.5,2087.5" style="fill:none;fill-rule:nonzero;stroke:#555;stroke-width:4px;"/>
            </g>
            <clipPath id="_clip15">
                <rect x="-2160" y="0" width="2000" height="2077"/>
            </clipPath>
            <g clip-path="url(#_clip15)">
                <path d="M-1745.98,1393.33C-1737.04,1393.42 -1688.66,1394.78 -1650.49,1434.25C-1614.34,1471.64 -1612.87,1516.84 -1612.78,1526.53L-1612.78,2076.99" style="fill:none;fill-rule:nonzero;stroke:#555;stroke-width:8px;"/>
            </g>
            <clipPath id="_clip16">
                <rect x="-2160" y="0" width="2000" height="2077"/>
            </clipPath>
            <g clip-path="url(#_clip16)">
                <path d="M-1834,1532.26C-1826.88,1532.33 -1788.33,1533.41 -1757.92,1564.87C-1729.11,1594.66 -1727.94,1630.67 -1727.87,1638.4L-1727.87,2077" style="fill:none;fill-rule:nonzero;stroke:#555;stroke-width:8px;"/>
            </g>
            <clipPath id="_clip17">
                <rect x="-2160" y="0" width="2000" height="2077"/>
            </clipPath>
            <g clip-path="url(#_clip17)">
                <path d="M-1940.5,2077L-1940.5,1685" style="fill:none;fill-rule:nonzero;stroke:#555;stroke-width:8px;"/>
            </g>
            <path d="M-2005.5,712L-2005.5,1137" style="fill:none;fill-rule:nonzero;stroke:#555;stroke-width:8px;"/>
            <path d="M-2019.5,726.5L-2019.5,1157" style="fill:none;fill-rule:nonzero;stroke:#555;stroke-width:4px;"/>
            <path d="M-2032.5,740.5L-2032.5,1179" style="fill:none;fill-rule:nonzero;stroke:#555;stroke-width:2px;"/>
            <clipPath id="_clip18">
                <rect x="-2160" y="0" width="2000" height="2077"/>
            </clipPath>
            <g clip-path="url(#_clip18)">
                <path d="M-1956.5,1714.5L-1956.5,2145" style="fill:none;fill-rule:nonzero;stroke:#555;stroke-width:4px;"/>
            </g>
            <clipPath id="_clip19">
                <rect x="-2160" y="0" width="2000" height="2077"/>
            </clipPath>
            <g clip-path="url(#_clip19)">
                <path d="M-1969.5,1728.5L-1969.5,2167" style="fill:none;fill-rule:nonzero;stroke:#555;stroke-width:2px;"/>
            </g>
        </g>
    </g>
</svg>
