<?xml version="1.0" encoding="utf-8"?>
<!-- Generator: Adobe Illustrator 24.0.1, SVG Export Plug-In . SVG Version: 6.00 Build 0)  -->
<svg version="1.1" id="Layer_1" xmlns="http://www.w3.org/2000/svg" xmlns:xlink="http://www.w3.org/1999/xlink" x="0px" y="0px"
	 viewBox="0 0 1375.9 567.4" style="enable-background:new 0 0 1375.9 567.4;" xml:space="preserve">
<style type="text/css">
	.st0{fill:#F1F0DE;}
</style>
<title>Asset 1</title>
<g id="Layer_2_1_">
	<g id="final">
		<g id="visual_effects">
			<path class="st0" d="M112.6,496.5h22.6v0.8l-8.3,7.2l-27.1,61.1h-4.5l-27.2-61.1l-8.4-7.2v-0.8h27.9v0.8l-9.3,7.2l21.9,49.8
				l21.8-49.8l-9.4-7.2L112.6,496.5L112.6,496.5z"/>
			<path class="st0" d="M186.1,557.4V514c0-3.6-0.8-6.3-2.4-8.1c-1.6-1.8-4.3-3.1-8-3.9v-0.8l18.8-5.9h0.9v61.9l9.1,7.3v0.8H177
				v-0.8L186.1,557.4z M181.6,475.9l8.9-9.1l8.7,9.1l-8.7,9.3L181.6,475.9z"/>
			<path class="st0" d="M266.7,501c-2.5,2.1-4,5.2-3.8,8.5c-0.1,3.4,1.3,6.6,3.8,8.9c2.6,2.4,7,4.8,13.3,7.2
				c6.7,2.4,11.8,5.3,15.5,8.6s5.5,7.8,5.5,13.5c0.1,3.9-1.1,7.7-3.5,10.8c-2.4,3-5.5,5.3-9,6.8c-3.6,1.5-7.4,2.3-11.3,2.3
				c-3.6,0-7.1-0.6-10.4-1.8c-3.1-1.1-6-2.8-8.5-5l-4.8,4.8h-1.1v-20.7h3.1c1.5,6.1,4.1,10.8,8,14.1c3.8,3.3,8.6,5.1,13.6,5
				c4.8,0,8.5-1.2,11.2-3.6c2.7-2.5,4.2-6.1,4-9.8c0-4.5-1.4-8.1-4.3-10.7c-2.8-2.6-7.2-4.9-13-7c-7.4-2.7-12.7-5.7-16-8.9
				c-3.1-2.9-4.9-6.9-4.9-11.2c-0.1-5.3,2.4-10.2,6.8-13.2c4.5-3.3,10-5,16.5-5c4.2,0,8.5,0.8,12.4,2.4c3.5,1.4,6.5,3.7,8.8,6.8
				l-7.2,8.7l-0.8-0.3c-0.7-9.4-5.4-14.1-14-14.1C273.1,497.8,269.6,498.9,266.7,501z"/>
			<path class="st0" d="M420.7,564.7v0.8H403v-14.3l-0.3-0.2c-2,5-5.5,9.2-10,12.1c-4.5,2.9-9.8,4.4-15.2,4.3c-7,0-12.6-2-16.7-6.2
				s-6.2-9.6-6.2-16.5V514c0-3.7-0.8-6.4-2.3-8.2c-1.5-1.7-4.1-3-7.6-3.8v-0.8l18.3-5.9h0.9V543c0,6.3,1.4,11.1,4.2,14.4
				c2.8,3.3,6.9,5,12.1,5c3.9,0,7.8-1,11.2-2.9c3.4-2,6.2-4.9,8-8.5c2-4,3-8.4,2.9-12.9V514c0-3.6-0.8-6.3-2.3-8.1
				c-1.6-1.8-4.1-3.1-7.6-3.9v-0.8l18.3-5.9h0.9v61.9L420.7,564.7z"/>
			<path class="st0" d="M531,564.7v0.8h-17.9v-10.2l-0.3-0.2c-3.1,3.8-7.1,6.9-11.6,8.9c-4.8,2.2-10.1,3.4-15.4,3.4
				c-6.2,0-11.2-1.6-14.9-4.7c-3.6-3-5.7-7.4-5.5-12.1c0-7.5,4.2-13.7,12.7-18.5s19.9-7.7,34.4-8.7V515c0-5.3-1.2-9.5-3.6-12.5
				s-6.2-4.5-11.4-4.5c-4.5,0-8.2,1.2-11,3.6c-2.7,2.2-4.3,5.6-4.2,9.1c0,2,0.5,4,1.4,5.8l-8.5,5.1l-0.6-0.2
				c-0.9-2.4-1.4-4.9-1.5-7.5c-0.1-5.7,2.6-11,7.3-14.3c4.9-3.6,10.9-5.4,18.1-5.4s12.9,1.8,17.2,5.3c4.2,3.5,6.2,8.5,6.2,15v42.6
				L531,564.7z M503.3,559c3.9-1.8,7.2-4.7,9.5-8.3v-24c-12.1,1-21.3,3.4-27.7,7.2c-6.4,3.8-9.5,8.9-9.5,15.3c0,4.1,1.3,7.3,3.8,9.5
				s6.1,3.4,10.7,3.4C494.7,562.2,499.2,561.1,503.3,559z"/>
			<path class="st0" d="M594,454.9v102.4l9.2,7.3v0.8h-27.7v-0.8l9.2-7.3v-84.1c0-3.6-0.8-6.3-2.4-8.1s-4.3-3.1-8-3.9v-0.9l18.8-5.4
				H594z"/>
			<path class="st0" d="M779.8,549.1c-2.5,5.6-6.6,10.2-11.8,13.4c-5.2,3.3-11.3,4.9-17.5,4.9c-5.9,0-11.7-1.5-16.8-4.4
				c-5.3-3-9.7-7.4-12.6-12.8c-3.2-5.8-4.9-12.4-4.7-19.1c-0.1-6.7,1.4-13.2,4.5-19.1c2.8-5.4,7.1-9.8,12.4-12.9
				c5.3-3,11.2-4.6,17.3-4.6c5.3-0.1,10.5,1.2,15.2,3.8c4.4,2.5,7.9,6.1,10.3,10.6c2.5,4.8,3.8,10.1,3.7,15.4v2.4h-53.4v1
				c-0.1,6,1.1,11.9,3.6,17.3c2.1,4.7,5.5,8.8,9.8,11.8c4.1,2.8,8.9,4.2,13.9,4.2c4.8,0,9.4-1.2,13.6-3.6c4.1-2.3,7.5-5.6,9.8-9.8
				L779.8,549.1z M733.8,505.2c-4.2,4.7-6.7,10.9-7.3,18.8l43.2-1.8c-0.2-7.2-2.1-13-5.8-17.4c-3.6-4.4-8.5-6.6-14.6-6.6
				C743.3,498,737.6,500.6,733.8,505.2L733.8,505.2z"/>
			<path class="st0" d="M836.3,557.1v-56.5H825v-4h11.3v-20.7c0-7,2-12.5,5.9-16.5c4-4,9.1-6,15.5-6c2.9,0,5.7,0.5,8.4,1.6
				c2.3,0.9,4.4,2.4,6.2,4.3l-7.2,8.7l-0.6-0.3c-0.3-3.6-1.1-6.3-2.5-8c-1.4-1.8-3.5-2.7-5.8-2.6c-3.2-0.1-6.3,1.6-7.9,4.4
				c-1.9,3-2.8,7.2-2.8,12.7v22.5h20.7v4h-20.7v56.5l10.7,7.7v0.8h-29.1v-0.8L836.3,557.1z"/>
			<path class="st0" d="M918.8,557.1v-56.5h-11.3v-4h11.3v-20.7c0-7,2-12.5,5.9-16.5s9.1-6,15.5-6c2.9,0,5.7,0.5,8.4,1.6
				c2.3,0.9,4.4,2.4,6.2,4.3l-7.2,8.7l-0.6-0.3c-0.3-3.6-1.1-6.3-2.5-8c-1.4-1.8-3.5-2.7-5.8-2.6c-3.2-0.1-6.3,1.6-7.9,4.4
				c-1.8,3-2.8,7.2-2.8,12.7v22.5h20.7v4H928v56.5l10.7,7.7v0.8h-29.1v-0.8L918.8,557.1z"/>
			<path class="st0" d="M1051.6,549.1c-2.5,5.6-6.6,10.2-11.8,13.4c-5.2,3.3-11.3,4.9-17.5,4.9c-5.9,0-11.7-1.5-16.9-4.4
				c-5.3-3-9.7-7.4-12.6-12.8c-3.2-5.8-4.9-12.4-4.7-19.1c-0.1-6.7,1.4-13.2,4.5-19.1c2.8-5.4,7.1-9.8,12.4-12.9
				c5.3-3,11.2-4.6,17.3-4.6c5.3-0.1,10.5,1.2,15.1,3.8c4.3,2.5,7.9,6.2,10.3,10.6c2.5,4.8,3.8,10.1,3.7,15.5v2.4H998v1
				c-0.1,6,1.1,11.9,3.6,17.3c2.1,4.7,5.5,8.8,9.8,11.8c4.1,2.8,8.9,4.2,13.9,4.2c4.8,0,9.4-1.2,13.6-3.6c4.1-2.3,7.5-5.6,9.8-9.8
				L1051.6,549.1z M1005.6,505.2c-4.2,4.7-6.6,10.9-7.3,18.8l43.2-1.8c-0.2-7.2-2.1-13-5.8-17.4c-3.6-4.4-9-6.8-14.6-6.6
				C1015.1,498,1009.4,500.6,1005.6,505.2L1005.6,505.2z"/>
			<path class="st0" d="M1112.4,562.8c-5.1-3.1-9.1-7.6-11.8-12.9c-2.9-5.9-4.3-12.4-4.2-18.9c-0.1-6.6,1.4-13.1,4.3-19
				c2.7-5.4,6.9-9.8,12.1-12.9c5.3-3.1,11.3-4.7,17.5-4.6c5.6-0.1,11.2,1.3,16.1,4c4.5,2.5,8.1,6.4,10.3,11.1l-9.2,5.5l-0.6-0.3
				c-0.9-5.3-3-9.4-6.2-12.4c-3.3-2.9-7.5-4.5-11.9-4.4c-4.1-0.1-8.1,1.3-11.4,3.8c-3.5,2.8-6.2,6.4-7.8,10.6
				c-2,4.9-3,10.2-2.8,15.5c-0.1,5.9,1,11.7,3.3,17.2c1.9,4.7,5.1,8.8,9.2,11.8c4,2.8,8.7,4.3,13.6,4.2c9.4,0.1,18.2-5.1,22.5-13.5
				l3,1.5c-2.4,5.5-6.3,10.2-11.3,13.5c-5.2,3.3-11.2,4.9-17.3,4.8C1123.6,567.5,1117.6,565.9,1112.4,562.8z"/>
			<path class="st0" d="M1211.3,563.2c-2.8-2.8-4.2-6.7-4.2-11.5v-51.2h-9v-1.2c7.6-2.6,13.3-10.2,17.1-22.8h1.2v20h21.6v4h-21.6
				v50.8c0,3.7,0.7,6.5,2.1,8.5s3.7,3.1,6.2,2.9c4,0,7.3-2,10-6.2l2.7,1.7c-1.3,2.7-3.3,5-5.8,6.6c-2.8,1.8-6,2.6-9.3,2.5
				C1218.2,567.6,1214.3,566,1211.3,563.2z"/>
			<path class="st0" d="M1296.5,501c-2.6,2.1-4,5.2-3.8,8.5c-0.1,3.4,1.3,6.6,3.8,8.9c2.6,2.4,7,4.8,13.3,7.2
				c6.7,2.4,11.9,5.3,15.5,8.6s5.5,7.8,5.5,13.4c0.1,3.9-1.1,7.7-3.5,10.8c-2.4,3-5.5,5.3-9,6.8c-3.6,1.5-7.4,2.3-11.3,2.3
				c-3.6,0-7.1-0.6-10.4-1.8c-3.1-1.1-6-2.8-8.5-5l-4.8,4.8h-1v-20.7h3.2c1.5,6.1,4.2,10.8,8,14.1s8.6,5.1,13.7,5
				c4.8,0,8.5-1.2,11.2-3.6c2.7-2.5,4.2-6.1,4-9.8c0-4.5-1.4-8-4.3-10.7c-2.9-2.6-7.2-4.9-13-7c-7.4-2.7-12.7-5.7-16-8.9
				c-3.1-2.9-4.9-6.9-4.9-11.2c-0.1-5.3,2.4-10.2,6.8-13.2c4.5-3.3,10-5,16.5-5c4.2,0,8.5,0.8,12.4,2.4c3.5,1.4,6.5,3.7,8.8,6.8
				l-7.2,8.7l-0.8-0.3c-0.7-9.4-5.4-14.1-14-14.1C1302.9,497.8,1299.3,498.8,1296.5,501z"/>
		</g>
		<g id="Miracle">
			<path class="st0" d="M351.3,395.7V262h-3.5l-59,15.3v2.7c6.5,2.7,11.9,7.5,15.2,13.7c3.3,6.1,5,14.3,5,24.5v77.4l-9.4,12.3
				l-8.3,10.9v2.7H369v-2.7l-1.5-1.9L351.3,395.7z"/>
			<g id="spark">
				<path class="st0" d="M503.4,232.4L503.4,232.4c0-2.6-0.2-5.2-0.5-7.8c-23.1-12.4-42.6-24.1-62.5-35.3h-5V215
					C458.9,220.8,479.8,227.2,503.4,232.4z"/>
				<path class="st0" d="M383,239c-5.7-14.2-10.8-27.1-13.9-36c4.8,0.5,9.4,1.1,13.9,1.8V203l-20.5-27.6V167h35.7l-2.2-1.1L529.5,68
					c-22.1,9.9-103.9,43.7-165.3,60c9.3-51.5,10.6-116.8,10-128c-0.5,3.3-29.3,82.2-42.3,119.8l-0.6-1c0,0-57-64.9-80.1-100.8
					c-5-7.7,37.6,86.8,47.3,120.8c-50.1-8-148.4-28.7-148.4-28.7c44.2,24.3,112.5,54.1,125.3,57c-5.6,4.9-12.2,10.1-19.3,15.4
					l6.4,35.8c8.4-2.6,17.2-5.4,27-8.9c1.9-0.7,3.8-1.3,5.6-2c-3.9,11.2-14.9,37.6-24,59.5l2.7,15.4c15.3-16.2,29.5-33.5,42.4-51.6
					l13.4,27.4l13.9-28.5c10.6,13.4,25.5,32.5,39.3,50.5V239H383z"/>
				<path class="st0" d="M200.4,219.8c-19.4,12.2-36.8,22.6-46,28.7c15.4-4.6,28.4-8.3,40-11.5L200.4,219.8z"/>
			</g>
			<path id="M" class="st0" d="M289.2,390.9l-39.9-224.7l-41.9,7.8l4.8,24.6l-55.6,159.3l-6.1-28.6l-58.3-163L52,181.6l6.5,18.1
				L25.2,390.9L0,418.2v3.4h67.2v-3.4l-25.9-27.3l28-161.3l68.2,192h13.6l66.5-191.3l27.6,160.6l-18.1,27.3v3.4h39.6l24.2-28
				L289.2,390.9z"/>
			<path class="st0" d="M863.1,191.8c-11.4,8.4-20.1,20.2-26.3,35.5c-6.1,15.2-9.2,32.8-9.2,52.9c0,23,3.8,43.4,11.4,61.2
				s18.5,31.8,32.7,41.9s31,15.2,50.3,15.2c16,0.2,31.8-3.8,45.9-11.4c14-7.6,25.5-18.7,34.6-33.3l9.2,4.8
				c-20.9,45.2-55.8,67.9-104.7,67.9c-24.8,0-46.9-5.6-66.5-16.7c-19.3-10.9-35.2-27-45.7-46.5c-10.9-19.9-16.4-42.4-16.4-67.7
				c0-24.3,5.5-46.3,16.4-66c10.6-19.3,26.3-35.4,45.3-46.4c19.3-11.2,41.3-16.9,65.8-16.9c25.5,0,48,6,67.5,17.9
				c19.1,11.5,34.3,28.5,43.3,48.9l-39.6,30.4l-3.1-1.7c-1.3-24.1-8.2-43.9-20.5-59.3c-12.3-15.5-29.1-23.2-50.5-23.2
				C887.8,179.1,874.4,183.4,863.1,191.8z"/>
			<path id="E" class="st0" d="M1343.9,366.4l-2,0.7c-3.9,13-9.9,22.9-18.3,29.8c-8.3,6.9-18.5,10.4-30.5,10.4h-40.2V297.1h37.5
				l27.2,24.9h4.1v-64.1h-4.1l-27.3,24.9h-37.5v-97.5h56.9l45,46.7h4.1l-10.6-61H1188v3.4l20.5,27.3v189.2l-0.4,0.6l12.2,11.7
				c-6.4,8.3-14.8,14.6-24.5,18.5h100.7c23,0,40.1-1.8,51.5-5.3c11.1-3.3,20.9-10.1,28-19.3L1343.9,366.4z"/>
			<path id="L" class="st0" d="M1030.8,390.9V201.7l-20.5-27.3V171h88.6v3.4l-23.9,27.3v205.6h40.2c12,0,22.2-3.5,30.5-10.4
				s14.4-16.9,18.3-29.9l2-0.7l32.1,30.7c-7.1,9.2-16.9,15.9-28,19.3c-11.4,3.5-28.5,5.3-51.5,5.3h-108.4v-3.4L1030.8,390.9z"/>
			<path id="A" class="st0" d="M787.4,390.9l-97.2-224.7l-42.6,19.1l13.3,27.3l-76.7,178.3L578,398l17.7,23.6h26.6v-3.4l-20.5-27.3
				l24.2-57h87.6l24.5,57l-20.5,27.3v3.4h90v-3.4L787.4,390.9z M632.5,319.3l37.2-87.3l37.5,87.3H632.5z"/>
			<path id="R" class="st0" d="M504.3,307.7l-46.7-13.6c20-0.5,37.2-3.5,51.7-9c14.4-5.5,25.5-13.2,33.1-22.9
				c7.5-9.4,11.6-21.2,11.4-33.3c0-18.9-8.9-33.3-26.6-43.1c-17.7-9.9-42.2-14.8-73.3-14.8h-87.3v3l20.4,27.7V391l-9,11.9l16.2,18.8
				h57.5v-3.4L431.2,391v-96.9h11.3L522,416.8l62.1,20.2l2-2.4L504.3,307.7z M431.3,279.7v-94.4h18.8c17.9,0,32,4.1,42.1,12.4
				c10.1,8.3,15.2,19.8,15.2,34.6c0,14.6-4.8,26.1-14.5,34.6s-22.9,12.8-39.7,12.8H431.3z"/>
		</g>
	</g>
</g>
</svg>
