<svg xmlns="http://www.w3.org/2000/svg" viewBox="0 0 388 322"><defs><style>.cls-1{fill:#F1F0DE;}</style></defs><title>Spark</title><g id="Layer_2" data-name="Layer 2"><g id="cutouts"><path class="cls-1" d="M210,0s0,.08,0,.12S210,0,210,0Z"/><path class="cls-1" d="M388,218c-55.18-20.14-89.69-39-137.4-55.55L372,50c-20.85,12.32-98.3,55.18-157.41,78.36C218,76.23,211.83,11.19,210,.12c-.08,3.32-19.77,85-28.35,123.83-.43-.62-.67-1-.67-1S117,65,90,32c-5.82-7.11,47.19,82,60.75,114.67C100,144.41,0,135,0,135c46.71,19.08,118,41,130.93,42.35C100.91,210.4,39.69,255.46,20,272c63-27,86-33,129.76-54.3,1.77-.86,3.57-1.75,5.38-2.65C151,233.49,133.41,292.13,129,308c4-3,33-39,56-84,1.55-3,3-5.87,4.35-8.58.9.9,1.78,1.77,2.65,2.58,16,15,102,104,102,104s-50.33-87.29-65.91-119.6C295.83,202.25,332.3,215.47,388,218Z"/></g></g></svg>